HIERARCHY
ROOT Hips
{
  OFFSET 0 0 0
  CHANNELS 6 Xposition Yposition Zposition Zrotation Yrotation Xrotation
  JOINT LeftThigh
  {
    OFFSET 8.409438 0 -5.917753
    CHANNELS 3 Zrotation Yrotation Xrotation
    JOINT LeftLeg
    {
      OFFSET 0 0 -42.358652
      CHANNELS 3 Zrotation Yrotation Xrotation
      JOINT LeftFoot
      {
        OFFSET 0 0 -39.357303
        CHANNELS 3 Zrotation Yrotation Xrotation
      }
    }
  }
  JOINT RightThigh
  {
    OFFSET -8.409438 0 -5.917753
    CHANNELS 3 Zrotation Yrotation Xrotation
    JOINT RightLeg
    {
      OFFSET 0 0 -42.358652
      CHANNELS 3 Zrotation Yrotation Xrotation
      JOINT RightFoot
      {
        OFFSET 0 0 -39.357303
        CHANNELS 3 Zrotation Yrotation Xrotation
      }
    }
  }
  JOINT SpineLow
  {
    OFFSET 0 0 4.719101
    CHANNELS 3 Zrotation Yrotation Xrotation
    JOINT SpineMid
    {
      OFFSET 0 0 12.899191
      CHANNELS 3 Zrotation Yrotation Xrotation
      JOINT Chest
      {
        OFFSET 0 0 12.899191
        CHANNELS 3 Zrotation Yrotation Xrotation
        JOINT LeftShoulder
        {
          OFFSET 7.550562 1.41573 9.438202
          CHANNELS 3 Zrotation Yrotation Xrotation
          JOINT LeftArm
          {
            OFFSET 9.155056 0 4.247191
            CHANNELS 3 Zrotation Yrotation Xrotation
            JOINT LeftForearm
            {
              OFFSET 0 0 25.771955
              CHANNELS 3 Zrotation Yrotation Xrotation
              JOINT LeftHand
              {
                OFFSET 0 0 25.197169
                CHANNELS 3 Zrotation Yrotation Xrotation
              }
            }
          }
        }
        JOINT RightShoulder
        {
          OFFSET -7.550562 1.41573 9.438202
          CHANNELS 3 Zrotation Yrotation Xrotation
          JOINT RightArm
          {
            OFFSET -9.155056 0 4.247191
            CHANNELS 3 Zrotation Yrotation Xrotation
            JOINT RightForearm
            {
              OFFSET 0 0 -25.771955
              CHANNELS 3 Zrotation Yrotation Xrotation
              JOINT RightHand
              {
                OFFSET 0 0 -25.197169
                CHANNELS 3 Zrotation Yrotation Xrotation
              }
            }
          }
        }
        JOINT Neck
        {
          OFFSET 0 0 15.101124
          CHANNELS 3 Zrotation Yrotation Xrotation
          JOINT Head
          {
            OFFSET 0 0 11.325843
            CHANNELS 3 Zrotation Yrotation Xrotation
            End Site
            {
              OFFSET 0 0 14.157303
            }
          }
        }
      }
    }
  }
}
MOTION
Frames: 13
Frame Time: 0.0
0.0  89.887642  0.0  -0.450749  28.958521  -88.607766  -1.072796  -44.297081  -3.079187  -10.699107  46.934487  33.409533  5.691174  -0.092491  3.664636  -35.911683  3.895549  -50.254959  1.756536  16.376307  54.091931  5.795976  0.943186  -0.461248  -1.062299  -1.169936  -0.61326  -2.875889  -3.223915  -1.625683  -2.875889  -3.223914  -1.625683  -1.275127  19.445632  9.40359  116.335525  41.641786  -153.266458  -24.50318  -6.895225  73.055007  72.494938  43.042151  -19.457354  -3.370046  6.374052  26.583469  35.219254  57.718982  5.928948  -23.036459  -16.83491  -84.342454  85.537019  26.309553  -15.489166  -22.949288  5.47359  3.805279  -17.233705  3.969138  3.063166  
0.0  89.887642  0.0  -0.216905  27.916917  -88.450982  -0.04609  -44.013808  -2.91667  -11.140726  46.689338  32.885276  5.398347  -0.170717  3.567884  -35.218262  3.540404  -50.598571  1.807971  16.806634  54.526093  6.242601  0.76742  -0.667225  -1.040548  -1.133583  -0.662359  -2.814858  -3.126127  -1.76252  -2.814858  -3.126127  -1.76252  -1.229008  19.57779  9.578128  116.852397  41.624656  -153.372815  -24.536791  -6.989362  74.206812  72.802928  43.483921  -19.808465  -3.32058  6.248858  26.354092  37.670938  57.456529  7.648926  -22.842019  -17.049823  -84.614575  85.414004  26.388848  -15.546142  -22.551841  5.616644  3.910016  -16.937055  4.075007  3.143241  
0.0  89.887642  0.0  0.072771  26.869456  -88.231207  0.657425  -43.674702  -2.599352  -11.081376  46.374384  32.612596  5.298663  -0.112522  3.604297  -34.377219  3.16059  -51.000608  1.940095  17.251941  55.056236  6.682526  0.465464  -0.907467  -1.020148  -1.086036  -0.704091  -2.758307  -2.99739  -1.879523  -2.758307  -2.99739  -1.879523  -1.218467  19.650254  9.662314  117.223106  41.624002  -153.28702  -24.847663  -7.093351  75.574475  73.434689  43.835668  -19.946089  -3.319191  6.094623  25.796447  40.865748  56.983095  10.087466  -22.652158  -17.271533  -84.881661  85.185636  26.511907  -15.531374  -22.15126  5.648679  4.010044  -16.637871  4.097791  3.215579  
0.0  89.887642  0.0  0.381228  25.68323  -87.979101  1.398709  -43.26018  -2.195949  -10.973143  45.984754  32.297088  5.203771  -0.094221  3.636654  -33.626419  2.73309  -51.60699  2.22335  17.498067  55.800345  7.23669  0.471002  -1.043041  -1.012947  -1.009917  -0.735419  -2.739269  -2.790474  -1.968549  -2.739269  -2.790474  -1.968549  -1.16276  19.499513  9.601132  117.664313  41.670442  -153.009717  -25.399363  -7.126517  77.242694  74.169803  44.011692  -19.958494  -3.168202  5.754833  25.061709  44.80609  56.372504  13.194263  -22.512642  -17.523237  -85.147653  84.860636  26.643193  -15.446928  -21.611738  5.576319  4.108413  -16.234342  4.043203  3.28162  
0.0  89.887642  0.0  0.747516  24.527894  -87.598365  2.164032  -42.823952  -1.841528  -10.968771  45.520376  31.793587  5.137196  -0.037225  3.710147  -32.574323  2.311039  -52.284329  2.41294  17.767543  56.673669  7.102242  0.518915  -1.209813  -0.997695  -0.914979  -0.763927  -2.69909  -2.531753  -2.050875  -2.699091  -2.531753  -2.050876  -1.346493  19.204098  9.286591  118.316577  41.777066  -152.389386  -26.029818  -7.11011  79.13524  74.702045  43.998237  -20.043783  -3.436466  5.479099  23.944999  49.831393  55.495899  17.042011  -22.410236  -17.799979  -85.425128  84.472223  26.722468  -15.26335  -21.139026  5.389151  4.153255  -15.880054  3.903989  3.304344  
0.0  89.887642  0.0  1.120663  23.391535  -87.226111  3.016772  -42.37771  -1.462441  -11.182514  44.969106  31.113821  5.05082  0.022991  3.787168  -31.57315  1.915223  -53.003115  2.709589  17.836433  57.658443  6.705056  0.59204  -1.320138  -1.000192  -0.815551  -0.793116  -2.707806  -2.261321  -2.134509  -2.707806  -2.261321  -2.134509  -1.646458  18.76133  8.835789  119.387785  41.935244  -151.172465  -26.70673  -7.03039  81.133213  75.238992  43.831996  -20.064775  -3.651097  5.285813  22.811841  55.141648  54.339347  21.07688  -22.348454  -17.977581  -85.718303  84.064949  26.721543  -15.032954  -20.624333  5.182479  4.190028  -15.494081  3.750759  3.320283  
0.0  89.887642  0.0  1.473974  22.325923  -86.851532  3.843561  -41.907408  -0.973815  -11.613982  44.272288  30.219038  5.011842  0.087375  3.84264  -30.59714  1.540917  -53.709332  2.848608  18.020056  58.668169  6.310976  0.703083  -1.477655  -1.02466  -0.721431  -0.828966  -2.77648  -2.006413  -2.23549  -2.77648  -2.006413  -2.23549  -2.030027  18.25089  8.383626  120.803937  42.36132  -149.392832  -27.450526  -6.848044  83.259967  76.018611  43.632741  -19.967758  -4.016113  5.22543  21.597318  60.719254  52.80817  25.188585  -22.32142  -17.934431  -86.039805  83.759175  26.648089  -14.800077  -20.080453  4.973933  4.235537  -15.086199  3.596112  3.342821  
0.0  89.887642  0.0  1.753102  21.209063  -86.56369  4.626946  -41.443263  -0.27301  -11.945207  43.367637  29.343025  4.942541  0.140655  3.898378  -29.567123  1.190362  -54.264938  2.835811  18.350016  59.640244  5.851847  0.918754  -1.698279  -1.070036  -0.626237  -0.844527  -2.903179  -1.748497  -2.280691  -2.903179  -1.748497  -2.280691  -3.897423  17.610902  7.026489  124.052119  42.777977  -147.122489  -28.089763  -6.606389  85.491598  76.974491  43.470647  -19.87095  -4.186855  4.998904  20.36378  65.996438  51.00686  29.146538  -22.30374  -17.620844  -86.41011  83.652847  26.466618  -14.622315  -19.423319  4.719011  4.270228  -14.593058  3.407837  3.355236  
0.0  89.887642  0.0  1.963104  20.049502  -86.349029  5.217284  -40.981076  0.627445  -11.960512  42.255326  28.636226  4.827319  0.208315  3.976162  -28.53461  0.693703  -54.468227  2.798897  19.035073  60.291056  5.530549  1.120095  -1.92694  -1.15648  -0.539818  -0.848562  -3.142238  -1.515516  -2.293405  -3.142238  -1.515516  -2.293405  -4.388174  17.044232  6.274327  126.624466  44.070256  -144.412915  -28.550293  -6.433223  87.714169  78.054732  43.404458  -19.753274  -4.432147  4.92603  18.972676  71.21647  48.712922  32.743776  -22.33588  -17.056897  -86.853411  83.797348  26.116481  -14.602446  -18.569552  4.463714  4.32785  -13.952552  3.220013  3.383885  
0.0  89.887642  0.0  2.103508  18.849855  -86.234844  5.445003  -40.433479  1.794335  -11.573815  40.893811  28.180037  4.733085  0.284281  4.072817  -27.630685  -0.059698  -54.216503  3.003415  19.96295  60.473207  5.489376  1.514561  -2.314954  -1.364704  -0.50365  -0.859001  -3.712378  -1.424439  -2.319046  -3.712378  -1.424439  -2.319046  -4.190414  16.875939  5.558842  129.712656  45.879285  -141.294514  -28.809738  -6.527361  89.883831  79.36238  43.652835  -19.37394  -3.56613  5.007775  17.95499  75.4939  46.251422  35.737728  -22.440255  -16.27588  -87.360247  84.122897  25.629778  -14.734766  -17.173714  4.413618  4.410257  -12.906564  3.189484  3.433561  
0.0  89.887642  0.0  2.167924  17.673243  -86.152558  5.333995  -39.759325  3.05528  -10.829446  39.299661  27.994233  4.682895  0.361008  4.233158  -26.884249  -1.035757  -53.646049  3.581545  21.014104  60.203997  6.099935  1.863405  -2.762495  -1.671058  -0.512733  -0.932688  -4.547798  -1.464923  -2.512969  -4.547798  -1.464923  -2.512969  -3.387607  17.095679  5.231028  133.265718  48.212206  -137.701382  -29.065032  -7.012914  91.895075  80.911696  44.283593  -18.637768  -2.666782  5.289568  17.055969  80.066423  43.258578  38.624093  -22.663656  -15.384844  -87.853218  84.627415  25.232467  -14.905642  -15.344433  4.610707  4.682441  -11.538261  3.343232  3.628662  
0.0  89.887642  0.0  2.119084  16.446512  -86.107208  4.92292  -38.975443  4.341444  -9.813639  37.539337  28.015503  4.683812  0.448489  4.468626  -26.113304  -2.240069  -52.799364  4.789928  21.912418  59.615966  7.202769  1.667676  -2.92629  -1.926843  -0.55259  -1.074725  -5.242011  -1.594596  -2.89201  -5.242011  -1.594596  -2.89201  -2.856569  17.578209  5.278906  137.580343  50.863742  -133.341358  -29.291693  -7.818863  93.549092  82.654781  45.131849  -17.649351  -1.990637  5.484401  16.675582  84.146179  40.04732  41.214891  -23.087204  -14.421872  -88.286484  85.28485  24.965696  -15.109698  -13.581794  4.970576  5.167767  -10.222898  3.615566  3.986452  
0.0  89.887642  0.0  1.985483  15.293651  -86.089195  4.177711  -38.02877  5.606722  -8.893492  35.66584  28.047884  4.803812  0.540089  4.758431  -24.930624  -3.122538  -51.835347  6.098093  22.13355  58.921373  7.959479  0.970836  -2.50379  -2.160606  -0.627489  -1.27391  -5.87223  -1.82681  -3.423671  -5.87223  -1.82681  -3.423671  -2.544462  18.380094  5.495681  142.629028  53.608522  -128.319771  -29.57277  -8.772666  94.731928  84.484959  45.897312  -16.558487  -1.75136  5.92594  16.553179  87.837393  36.485761  43.246849  -23.70213  -13.367709  -88.637837  86.037607  24.811354  -15.398755  -11.895486  5.44312  5.801982  -8.967628  3.971697  4.456444  
